<svg width="46" height="45" viewBox="0 0 46 45" fill="none" xmlns="http://www.w3.org/2000/svg">
<g clip-path="url(#clip0)">
<path d="M44.448 5.52999H42.0596L43.5548 4.06055C44.0787 3.54568 44.0787 2.71099 43.5548 2.19612C43.031 1.68126 42.1816 1.68126 41.6577 2.19612L40.1625 3.66557V1.31836C40.1625 0.590273 39.5618 0 38.821 0C38.0801 0 37.4795 0.590273 37.4795 1.31836V6.30229L34.9017 8.83564C31.0626 5.50723 26.1832 3.68771 21.0185 3.68771C15.4043 3.68771 10.1261 5.83629 6.15618 9.73775C2.18627 13.6392 0 18.8264 0 24.3439C0 29.8613 2.18627 35.0485 6.15618 38.95C10.1261 42.8514 15.4043 45 21.0185 45C26.6327 45 31.911 42.8514 35.8809 38.95C39.8508 35.0485 42.0371 29.8613 42.0371 24.3439C42.0371 19.2683 40.1856 14.4729 36.7987 10.7001L39.3765 8.16671H44.448C45.1888 8.16671 45.7895 7.57644 45.7895 6.84835C45.7895 6.12026 45.1888 5.52999 44.448 5.52999ZM39.3541 24.3439C39.3541 34.2798 31.1288 42.3633 21.0185 42.3633C10.9083 42.3633 2.68298 34.2798 2.68298 24.3439C2.68298 14.4079 10.9083 6.32443 21.0185 6.32443C25.5919 6.32443 29.7794 7.97862 32.9945 10.71L29.7394 13.909C27.3648 11.989 24.3264 10.8346 21.0185 10.8346C13.4389 10.8346 7.2723 16.8949 7.2723 24.3439C7.2723 31.793 13.4389 37.8532 21.0185 37.8532C28.5982 37.8532 34.7649 31.7929 34.7649 24.3439C34.7649 21.0931 33.5902 18.107 31.6365 15.7735L34.8917 12.5744C37.6709 15.734 39.3541 19.8493 39.3541 24.3439ZM25.2015 24.3439C25.2015 26.6106 23.3251 28.4546 21.0185 28.4546C18.7121 28.4546 16.8357 26.6106 16.8357 24.3439C16.8357 22.0772 18.7121 20.233 21.0185 20.233C21.6833 20.233 22.3119 20.3869 22.8706 20.6593L20.0699 23.4117C19.546 23.9266 19.546 24.7612 20.0699 25.2761C20.3319 25.5335 20.6752 25.6623 21.0184 25.6623C21.3617 25.6623 21.7051 25.5336 21.967 25.2761L24.7676 22.5237C25.0449 23.0728 25.2015 23.6906 25.2015 24.3439ZM24.8293 18.7343C23.7383 18.0161 22.4275 17.5963 21.0185 17.5963C17.2327 17.5963 14.1527 20.6233 14.1527 24.3439C14.1527 28.0644 17.2327 31.0913 21.0185 31.0913C24.8045 31.0913 27.8844 28.0644 27.8844 24.3439C27.8844 22.9592 27.4573 21.6709 26.7265 20.5987L29.729 17.648C31.2023 19.495 32.0818 21.8204 32.0818 24.3439C32.0818 30.339 27.1188 35.2164 21.0184 35.2164C14.9181 35.2164 9.95528 30.339 9.95528 24.3439C9.95528 18.3488 14.9182 13.4713 21.0185 13.4713C23.5863 13.4713 25.9524 14.3356 27.8319 15.7835L24.8293 18.7343Z" fill="#FE3861"/>
</g>
<defs>
<clipPath id="clip0">
<rect width="45.7895" height="45" fill="white"/>
</clipPath>
</defs>
</svg>
