<svg width="45" height="45" viewBox="0 0 45 45" fill="none" xmlns="http://www.w3.org/2000/svg">
<path d="M41.0449 1.40625H3.95508C1.77429 1.40625 0 3.18054 0 5.36133V31.7285C0 33.9093 1.77429 35.6836 3.95508 35.6836H15.3973L13.6395 40.957H9.31641C8.58822 40.957 7.99805 41.5472 7.99805 42.2754C7.99805 43.0036 8.58822 43.5938 9.31641 43.5938H35.6836C36.4118 43.5938 37.002 43.0036 37.002 42.2754C37.002 41.5472 36.4118 40.957 35.6836 40.957H31.3605L29.6027 35.6836H41.0449C43.2257 35.6836 45 33.9093 45 31.7285V5.36133C45 3.18054 43.2257 1.40625 41.0449 1.40625ZM16.4191 40.957L18.1769 35.6836H26.8231L28.5809 40.957H16.4191ZM42.3633 31.7285C42.3633 32.4553 41.7717 33.0469 41.0449 33.0469C37.2145 33.0469 7.82536 33.0469 3.95508 33.0469C3.22826 33.0469 2.63672 32.4553 2.63672 31.7285V30.4102H42.3633V31.7285ZM14.377 20.1963L13.1778 18.9974L15.042 17.1328L16.2412 18.3321C16.6663 18.7571 17.3251 18.8409 17.8432 18.5353C18.5841 18.0986 19.3751 17.7694 20.1939 17.5572C20.7755 17.4068 21.1816 16.8819 21.1816 16.2811V14.5898H23.8184V16.2811C23.8184 16.8819 24.2245 17.4068 24.8061 17.5572C25.6246 17.7694 26.4156 18.0986 27.1565 18.5357C27.6746 18.8409 28.3334 18.7571 28.7584 18.3321L29.9577 17.1328L31.8222 18.9974L30.623 20.1966C30.198 20.6217 30.1142 21.2805 30.4198 21.7982C30.8568 22.5395 31.1857 23.3305 31.3979 24.149C31.5483 24.7306 32.0732 25.1367 32.674 25.1367H34.3652V27.7734H28.9586C29.0465 27.3415 29.0918 26.8997 29.0918 26.4551C29.0918 22.8203 26.1348 19.8633 22.5 19.8633C18.8652 19.8633 15.9082 22.8203 15.9082 26.4551C15.9082 26.8997 15.9535 27.3415 16.0414 27.7734H10.6348V25.1367H12.326C12.9268 25.1367 13.4517 24.7306 13.6024 24.149C13.8143 23.3305 14.1435 22.5395 14.5802 21.7982C14.8854 21.2805 14.802 20.6217 14.377 20.1963ZM26.4551 26.4551C26.4551 26.9065 26.3768 27.3525 26.2285 27.7734H18.7715C18.6232 27.3525 18.5449 26.9065 18.5449 26.4551C18.5449 24.2743 20.3192 22.5 22.5 22.5C24.6808 22.5 26.4551 24.2743 26.4551 26.4551ZM42.3633 27.7734H37.002V23.8184C37.002 23.0902 36.4118 22.5 35.6836 22.5H33.647C33.5104 22.1169 33.3535 21.7402 33.177 21.3712L34.6189 19.9295C35.1336 19.4146 35.1336 18.5799 34.6186 18.065L30.8898 14.3361C30.6426 14.0889 30.3072 13.9502 29.9577 13.9502C29.6082 13.9502 29.2727 14.0889 29.0255 14.3361L27.5839 15.7781C27.2149 15.6016 26.8382 15.4447 26.4551 15.3084V13.2715C26.4551 12.5433 25.8649 11.9531 25.1367 11.9531H19.8633C19.1351 11.9531 18.5449 12.5433 18.5449 13.2715V15.3084C18.1618 15.4447 17.7851 15.6016 17.4161 15.7781L15.9745 14.3361C15.7273 14.0889 15.3918 13.9502 15.0423 13.9502C14.6925 13.9502 14.3574 14.0889 14.1099 14.3361L10.3814 18.065C9.86641 18.5799 9.86641 19.4146 10.3814 19.9295L11.823 21.3715C11.6465 21.7402 11.49 22.1169 11.3533 22.5H9.31641C8.58822 22.5 7.99805 23.0905 7.99805 23.8184V27.7734H2.63672V5.36133C2.63672 4.63451 3.22826 4.04297 3.95508 4.04297H41.0449C41.7717 4.04297 42.3633 4.63451 42.3633 5.36133V27.7734Z" fill="#FE3861"/>
<path d="M35.6836 6.67969C33.5028 6.67969 31.7285 8.45398 31.7285 10.6348C31.7285 12.8156 33.5028 14.5898 35.6836 14.5898C37.8644 14.5898 39.6387 12.8156 39.6387 10.6348C39.6387 8.45398 37.8644 6.67969 35.6836 6.67969ZM35.6836 11.9531C34.9568 11.9531 34.3652 11.3616 34.3652 10.6348C34.3652 9.90795 34.9568 9.31641 35.6836 9.31641C36.4104 9.31641 37.002 9.90795 37.002 10.6348C37.002 11.3616 36.4104 11.9531 35.6836 11.9531Z" fill="#FE3861"/>
</svg>
